#!OML:ASF H:\Not Pregnant\Project 1\Capture day 1\Session 1\non-pregnant.ASF
:FULLY-SPECIFIED
:DEGREES
887
root -4.92762 16.6782 -24.2375 18.5792 -47.2928 -371.182
lowerback -3.23633 5.36199 4.41032
upperback -6.64743 7.03198 -1.84542
thorax -4.33612 3.24039 -4.35896
lowerneck 4.67706 -3.27188 -32.511
upperneck 10.2253 -9.01578 36.1317
head 5.41473 -5.22229 19.6337
rclavicle 5.66536e-015 6.36111e-015
rhumerus -37.1573 -9.75109 -82.4184
rradius 32.2795
rwrist 20.2918
rhand -2.98184 2.05792
rfingers 7.12502
rthumb 22.7314 -26.623
lclavicle 5.66536e-015 6.36111e-015
lhumerus -51.2104 4.59623 72.3822
lradius 31.27
lwrist 36.432
lhand -15.4523 -4.14941
lfingers 7.12502
lthumb 10.7285 25.5566
rfemur -5.57332 -3.73596 22.5581
rtibia 45.8918
rfoot 17.6113 20.2027
rtoes -17.87
lfemur -36.4561 8.38749 -26.9742
ltibia 35.2587
lfoot -10.152 2.57596
ltoes 7.42124
888
root -5.00991 16.6876 -24.1453 17.9587 -47.1143 -370.719
lowerback -2.97024 5.34702 4.03318
upperback -6.56773 7.0236 -1.89818
thorax -4.43708 3.2512 -4.23042
lowerneck 4.69688 -3.25994 -32.528
upperneck 10.2222 -8.99173 36.0851
head 5.39749 -5.2101 19.61
rclavicle 9.20373e-014 9.54166e-015
rhumerus -37.2466 -9.81167 -82.3177
rradius 32.127
rwrist 20.4645
rhand -2.38902 2.16286
rfingers 7.12502
rthumb 23.3002 -26.4472
lclavicle 9.20373e-014 9.54166e-015
lhumerus -51.1704 4.25321 72.6994
lradius 31.8472
lwrist 37.0068
lhand -14.9013 -4.42167
lfingers 7.12502
lthumb 11.26 25.2561
rfemur -6.69378 -3.42328 21.9855
rtibia 47.7959
rfoot 16.7526 20.7576
rtoes -18.2553
lfemur -35.5097 8.57263 -27.3091
ltibia 35.0007
lfoot -10.5716 2.28061
ltoes 7.38188
889
root -5.09057 16.6939 -24.0555 17.2479 -46.8886 -370.139
lowerback -2.70721 5.31528 3.5932
upperback -6.47221 6.98915 -1.97467
thorax -4.52657 3.25194 -4.091
lowerneck 4.72952 -3.24881 -32.5453
upperneck 10.2029 -8.97102 36.0505
head 5.37542 -5.20067 19.5927
rclavicle -5.59579e-014 1.59028e-015
rhumerus -37.3022 -9.90375 -82.1997
rradius 31.9498
rwrist 20.7063
rhand -1.87749 2.26417
rfingers 7.12502
rthumb 23.7909 -26.2829
lclavicle -5.59579e-014 1.59028e-015
lhumerus -51.0598 3.89924 73.023
lradius 32.4078
lwrist 37.5392
lhand -14.3274 -4.71998
lfingers 7.12502
lthumb 11.8134 24.9268
rfemur -7.82345 -3.17581 21.3511
rtibia 49.6589
rfoot 15.2348 20.9047
rtoes -19.2692
lfemur -34.5547 8.73382 -27.7209
ltibia 34.7215
lfoot -10.9868 1.94094
ltoes 7.29429
890
root -5.16979 16.6972 -23.9678 16.4711 -46.6074 -369.451
lowerback -2.44973 5.26741 3.0809
upperback -6.37611 6.92896 -2.06709
thorax -4.62095 3.24247 -3.92787
lowerneck 4.76631 -3.24297 -32.5683
upperneck 10.1877 -8.96138 36.0185
head 5.359 -5.19766 19.5782
rclavicle -6.70898e-014 -4.77083e-015
rhumerus -37.3463 -10.0315 -82.0466
rradius 31.7491
rwrist 21.0056
rhand -1.44877 2.40897
rfingers 7.12502
rthumb 24.202 -26.0839
lclavicle -6.70898e-014 -4.77083e-015
lhumerus -50.8957 3.53708 73.3578
lradius 32.9485
lwrist 38.0095
lhand -13.7469 -5.01835
lfingers 7.12502
lthumb 12.3731 24.5955
rfemur -8.98089 -3.00596 20.656
rtibia 51.4691
rfoot 13.2585 20.6222
rtoes -20.6992
lfemur -33.6123 8.86307 -28.2073
ltibia 34.4272
lfoot -11.3943 1.56079
ltoes 7.16533
891
root -5.24786 16.6983 -23.8826 15.6741 -46.2643 -368.685
lowerback -2.23282 5.2018 2.51466
upperback -6.27985 6.83981 -2.16881
thorax -4.69949 3.221 -3.74021
lowerneck 4.81186 -3.23683 -32.6028
upperneck 10.1736 -8.95491 35.9887
head 5.34329 -5.19759 19.5681
rclavicle -1.02821e-013 -9.54166e-015
rhumerus -37.3763 -10.1765 -81.8639
rradius 31.5245
rwrist 21.3335
rhand -1.13749 2.57113
rfingers 7.12502
rthumb 24.5004 -25.8817
lclavicle -1.02821e-013 -9.54166e-015
lhumerus -50.6814 3.18968 73.6946
lradius 33.4712
lwrist 38.4019
lhand -13.1756 -5.31997
lfingers 7.12502
lthumb 12.9239 24.2598
rfemur -10.1928 -2.92258 19.9208
rtibia 53.2082
rfoot 11.0359 19.9916
rtoes -22.324
lfemur -32.7108 8.95673 -28.7492
ltibia 34.1253
lfoot -11.7911 1.14348
ltoes 6.99171
